<svg viewBox="0 0 64 64" fill="none" xmlns="http://www.w3.org/2000/svg" role="img" aria-label="Served">
  <path d="M32 3.5 44.5 9v2.2c0 12.8-5.2 24.8-12.5 33.5L32 48.5l-.5-.1C24.2 39.9 19 27.9 19 11.2V9L32 3.5Z" stroke="#0a0a0a" stroke-opacity=".38" stroke-width=".85"/>
  <path d="M32 6.2 41.8 10.5v1.4c0 10.6-4.3 20.5-10.2 27.8L32 44.2 22.4 39.7C16.5 32.4 12.2 22.5 12.2 11.9v-1.4L32 6.2Z" fill="#0a0a0a" fill-opacity=".22"/>
  <path fill="#0a0a0a" d="M18.5 52.2h27c1.2 0 2.2 1 2.2 2.2v1.1c0 .6-.5 1.1-1.1 1.1H17.4c-.6 0-1.1-.5-1.1-1.1v-1.1c0-1.2 1-2.2 2.2-2.2Z"/>
  <path fill="#0a0a0a" fill-opacity=".72" d="M32 18.2c-4.8 0-8.6 1.4-11.2 3.4-2.1 1.6-3.5 3.6-4.2 5.8-.8 2.5-.9 5.2-.4 7.8.8 4.2 3.2 8.2 7.2 11.2 2.8 2.1 6.3 3.6 10.1 4.1 1.2.15 2.4.2 3.6.15 3.8-.35 7.3-1.9 10.1-4.1 4-3 6.4-7 7.2-11.2.5-2.6.4-5.3-.4-7.8-.7-2.2-2.1-4.2-4.2-5.8-2.6-2-6.4-3.4-11.2-3.4Z"/>
  <circle cx="32" cy="13.2" r="4.35" fill="#0a0a0a"/>
  <path fill="#0a0a0a" d="M26.2 12.8h11.6c.55 0 1 .45 1 1v1.35c0 .55-.45 1-1 1H26.2c-.55 0-1-.45-1-1v-1.35c0-.55.45-1 1-1Z"/>
  <path stroke="#0a0a0a" stroke-width="1.35" stroke-linecap="round" d="M12.8 15.2h11.2"/>
  <path fill="#0a0a0a" d="M12.4 20.6c0-1.55 1.25-2.8 2.8-2.8s2.8 1.25 2.8 2.8v1.2c0 .45-.35.8-.8.8h-4c-.45 0-.8-.35-.8-.8v-1.2Z"/>
  <path fill="#0a0a0a" d="M18.8 20.6c0-1.55 1.25-2.8 2.8-2.8s2.8 1.25 2.8 2.8v1.2c0 .45-.35.8-.8.8h-4c-.45 0-.8-.35-.8-.8v-1.2Z"/>
  <path fill="#0a0a0a" d="M46.8 22.5 49 38.2c.15.95-.5 1.85-1.45 2-1.15.18-2.15-.65-2.3-1.8l-1.5-14.2 2.95-.7Z"/>
  <path fill="#0a0a0a" d="M32 7.2 33.1 9.8h2.8l-2.3 1.7.9 2.8-2.5-1.8-2.5 1.8.9-2.8-2.3-1.7h2.8L32 7.2Z"/>
</svg>
